TITLE: Timeline 1
FCM: NON-DROP FRAME

001  AX       V     C        13:05:33:13 13:05:39:20 01:00:00:00 01:00:06:07
* FROM CLIP NAME: C2747.MP4

002  AX       V     C        13:31:18:16 13:31:24:02 01:00:06:07 01:00:11:18
* FROM CLIP NAME: C2770.MP4

003  AX       V     C        06:42:08:08 06:42:16:08 01:00:11:18 01:00:19:18
* FROM CLIP NAME: DJI_20240916210014_0033_D.MP4

004  AX       V     C        13:49:25:13 13:49:31:22 01:00:19:18 01:00:26:02
* FROM CLIP NAME: C2801.MP4

005  AX       V     C        13:25:45:15 13:25:55:04 01:00:26:02 01:00:35:16
* FROM CLIP NAME: C2760.MP4

006  AX       V     C        13:07:51:17 13:07:56:17 01:00:35:16 01:00:40:16
* FROM CLIP NAME: C2747.MP4

007  AX       V     C        06:43:30:19 06:43:36:17 01:00:40:16 01:00:46:14
* FROM CLIP NAME: DJI_20240916210313_0034_D.MP4

008  AX       V     C        13:19:11:07 13:19:17:08 01:00:46:14 01:00:52:15
* FROM CLIP NAME: C2755.MP4

009  AX       V     C        13:38:39:00 13:38:46:01 01:00:52:15 01:00:59:16
* FROM CLIP NAME: C2775.MP4

010  AX       V     C        13:33:11:21 13:33:17:21 01:00:59:16 01:01:05:16
* FROM CLIP NAME: C2770.MP4

011  AX       V     C        12:59:23:00 12:59:28:03 01:01:05:16 01:01:10:19
* FROM CLIP NAME: C2736.MP4

012  AX       V     C        13:41:43:11 13:41:48:11 01:01:10:19 01:01:15:19
* FROM CLIP NAME: C2782.MP4

013  AX       V     C        13:43:56:14 13:44:02:09 01:01:15:19 01:01:21:14
* FROM CLIP NAME: C2787.MP4

014  AX       V     C        07:36:42:05 07:36:59:03 01:01:21:14 01:01:38:12
* FROM CLIP NAME: DJI_20240916215622_0053_D.MP4

015  AX       V     C        13:04:37:04 13:04:43:15 01:01:38:12 01:01:44:23
* FROM CLIP NAME: C2747.MP4

016  AX       V     C        13:02:01:24 13:02:07:18 01:01:44:23 01:01:50:17
* FROM CLIP NAME: C2742.MP4

017  AX       V     C        13:49:25:13 13:49:31:22 01:01:50:17 01:01:57:01
* FROM CLIP NAME: C2801.MP4

018  AX       V     C        13:28:48:17 13:28:53:17 01:01:57:01 01:02:02:01
* FROM CLIP NAME: C2767.MP4

019  AX       V     C        06:28:11:02 06:28:15:21 01:02:02:01 01:02:06:20
* FROM CLIP NAME: DJI_20240916204748_0031_D.MP4

020  AX       V     C        13:18:42:05 13:18:47:15 01:02:06:20 01:02:12:05
* FROM CLIP NAME: C2755.MP4

021  AX       V     C        13:36:08:08 13:36:13:08 01:02:12:05 01:02:17:05
* FROM CLIP NAME: C2775.MP4

022  AX       V     C        13:38:50:19 13:38:55:13 01:02:17:05 01:02:21:24
* FROM CLIP NAME: C2776.MP4

023  AX       V     C        12:44:13:01 12:44:18:01 01:02:21:24 01:02:26:24
* FROM CLIP NAME: C2706.MP4

024  AX       V     C        12:38:59:17 12:39:05:18 01:02:26:24 01:02:33:00
* FROM CLIP NAME: C2688.MP4

025  AX       V     C        12:43:52:06 12:44:00:22 01:02:33:00 01:02:41:16
* FROM CLIP NAME: C2706.MP4

026  AX       V     C        12:49:17:09 12:49:22:09 01:02:41:16 01:02:46:16
* FROM CLIP NAME: C2716.MP4

027  AX       V     C        07:32:43:19 07:33:01:21 01:02:46:16 01:03:04:18
* FROM CLIP NAME: DJI_20240916215152_0052_D.MP4

028  AX       V     C        13:31:35:09 13:31:40:09 01:03:04:18 01:03:09:18
* FROM CLIP NAME: C2770.MP4

029  AX       V     C        06:44:51:09 06:44:59:05 01:03:09:18 01:03:17:14
* FROM CLIP NAME: DJI_20240916210425_0036_D.MP4

030  AX       V     C        19:33:11:07 19:33:17:04 01:03:17:14 01:03:23:11
* FROM CLIP NAME: C8411.MP4

031  AX       V     C        19:35:44:22 19:35:50:19 01:03:23:11 01:03:29:08
* FROM CLIP NAME: C8422.MP4

032  AX       V     C        07:03:48:18 07:03:56:07 01:03:29:08 01:03:36:22
* FROM CLIP NAME: DJI_20240916212324_0037_D.MP4

033  AX       V     C        12:57:18:24 12:57:23:24 01:03:36:22 01:03:41:22
* FROM CLIP NAME: C2730.MP4

034  AX       V     C        05:52:40:24 05:52:48:01 01:03:41:22 01:03:48:24
* FROM CLIP NAME: DJI_20240916201227_0028_D.MP4

035  AX       V     C        13:44:33:12 13:44:38:12 01:03:48:24 01:03:53:24
* FROM CLIP NAME: C2789.MP4

036  AX       V     C        13:47:30:06 13:47:35:12 01:03:53:24 01:03:59:05
M2   AX             022.5                13:47:30:06
* FROM CLIP NAME: C2798.MP4

037  AX       V     C        17:55:31:15 17:55:49:24 01:03:59:05 01:04:17:14
* FROM CLIP NAME: C8133.MP4

038  AX       V     C        13:12:49:17 13:12:55:15 01:04:17:14 01:04:23:12
* FROM CLIP NAME: C2751.MP4

039  AX       V     C        13:29:51:22 13:29:58:12 01:04:23:12 01:04:30:02
* FROM CLIP NAME: C2768.MP4

040  AX       V     C        13:44:59:08 13:45:05:09 01:04:30:02 01:04:36:03
* FROM CLIP NAME: C2790.MP4

041  AX       V     C        12:49:02:04 12:49:07:04 01:04:36:03 01:04:41:03
* FROM CLIP NAME: C2715.MP4

042  AX       V     C        12:47:54:15 12:47:59:15 01:04:41:03 01:04:46:03
* FROM CLIP NAME: C2711.MP4

043  AX       V     C        06:19:11:08 06:19:18:21 01:04:46:03 01:04:53:16
* FROM CLIP NAME: DJI_20240916203902_0030_D.MP4

044  AX       V     C        13:23:49:07 13:23:54:21 01:04:53:16 01:04:59:05
* FROM CLIP NAME: C2757.MP4

045  AX       V     C        12:40:26:22 12:40:31:22 01:04:59:05 01:05:04:05
* FROM CLIP NAME: C2696.MP4

046  AX       V     C        17:43:17:21 17:43:36:22 01:05:04:05 01:05:23:06
* FROM CLIP NAME: C8132.MP4

047  AX       V     C        01:36:40:20 01:36:50:07 01:05:23:06 01:05:32:18
* FROM CLIP NAME: DJI_20240825155616_0828_D.MP4

048  AX       V     C        17:55:55:06 17:56:00:06 01:05:32:18 01:05:37:18
* FROM CLIP NAME: C8134.MP4

049  AX       V     C        17:37:38:24 17:37:43:24 01:05:37:18 01:05:42:18
* FROM CLIP NAME: C8117.MP4

050  AX       V     C        17:41:15:10 17:41:20:10 01:05:42:18 01:05:47:18
* FROM CLIP NAME: C8131.MP4

051  AX       V     C        17:36:45:18 17:36:50:18 01:05:47:18 01:05:52:18
* FROM CLIP NAME: C8113.MP4

052  AX       V     C        17:35:45:12 17:35:49:17 01:05:52:18 01:05:56:23
* FROM CLIP NAME: C8111.MP4

053  AX       V     C        17:37:59:14 17:38:04:14 01:05:56:23 01:06:01:23
* FROM CLIP NAME: C8119.MP4

054  AX       V     C        17:38:32:05 17:38:37:05 01:06:01:23 01:06:06:23
* FROM CLIP NAME: C8121.MP4

055  AX       V     C        12:01:53:01 12:01:58:01 01:06:06:23 01:06:11:23
* FROM CLIP NAME: C2605.MP4

056  AX       V     C        12:05:26:18 12:05:31:18 01:06:11:23 01:06:16:23
* FROM CLIP NAME: C2611.MP4

057  AX       V     C        12:10:30:08 12:10:35:08 01:06:16:23 01:06:21:23
* FROM CLIP NAME: C2619.MP4

058  AX       V     C        00:00:00:00 00:00:08:08 01:06:21:23 01:06:30:06
* FROM CLIP NAME: VID_20240916_203120_00_005.mp4

059  AX       V     C        00:00:00:00 00:00:07:14 01:06:30:06 01:06:37:20
* FROM CLIP NAME: VID_20240916_203120_00_005(1).mp4

060  AX       V     C        00:00:00:00 00:00:13:00 01:06:37:20 01:06:50:20
* FROM CLIP NAME: VID_20240916_203355_00_006.mp4

061  AX       V     C        00:00:00:00 00:00:11:02 01:06:50:20 01:07:01:22
* FROM CLIP NAME: VID_20240916_203709_00_007.mp4

062  AX       V     C        00:00:00:00 00:00:07:16 01:07:01:22 01:07:09:13
* FROM CLIP NAME: VID_20240916_204137_00_008(2).mp4

