TITLE: Timeline 1
FCM: NON-DROP FRAME

001  AX       V     C        00:00:00:00 00:00:03:08 01:00:00:00 01:00:03:08
* FROM CLIP NAME: sample 11092024.mp4

002  AX       V     C        00:00:03:08 00:00:07:28 01:00:03:08 01:00:07:28
* FROM CLIP NAME: sample 11092024.mp4

003  AX       V     C        00:00:07:28 00:00:14:10 01:00:07:28 01:00:14:10
* FROM CLIP NAME: sample 11092024.mp4

004  AX       V     C        00:00:14:10 00:00:25:29 01:00:14:10 01:00:25:29
* FROM CLIP NAME: sample 11092024.mp4

005  AX       V     C        00:00:25:29 00:00:39:15 01:00:25:29 01:00:39:15
* FROM CLIP NAME: sample 11092024.mp4

006  AX       V     C        00:00:39:16 00:00:48:24 01:00:39:15 01:00:48:23
* FROM CLIP NAME: sample 11092024.mp4

007  AX       V     C        00:00:48:24 00:00:54:11 01:00:48:23 01:00:54:10
* FROM CLIP NAME: sample 11092024.mp4

008  AX       V     C        00:00:54:11 00:01:04:13 01:00:54:10 01:01:04:12
* FROM CLIP NAME: sample 11092024.mp4

009  AX       V     C        00:01:04:13 00:01:11:23 01:01:04:12 01:01:11:22
* FROM CLIP NAME: sample 11092024.mp4

010  AX       V     C        00:01:11:24 00:01:15:22 01:01:11:22 01:01:15:20
* FROM CLIP NAME: sample 11092024.mp4

011  AX       V     C        00:01:15:22 00:01:21:16 01:01:15:20 01:01:21:14
* FROM CLIP NAME: sample 11092024.mp4

012  AX       V     C        00:01:21:16 00:01:36:01 01:01:21:14 01:01:35:29
* FROM CLIP NAME: sample 11092024.mp4

013  AX       V     C        00:01:36:01 00:01:43:26 01:01:35:29 01:01:43:24
* FROM CLIP NAME: sample 11092024.mp4

014  AX       V     C        00:01:43:27 00:01:50:22 01:01:43:24 01:01:50:19
* FROM CLIP NAME: sample 11092024.mp4

015  AX       V     C        00:01:50:22 00:01:57:18 01:01:50:19 01:01:57:15
* FROM CLIP NAME: sample 11092024.mp4

016  AX       V     C        00:01:57:18 00:02:26:18 01:01:57:15 01:02:26:15
* FROM CLIP NAME: sample 11092024.mp4

017  AX       V     C        00:02:26:19 00:02:33:17 01:02:26:15 01:02:33:13
* FROM CLIP NAME: sample 11092024.mp4

018  AX       V     C        00:02:33:17 00:02:42:18 01:02:33:13 01:02:42:14
* FROM CLIP NAME: sample 11092024.mp4

019  AX       V     C        00:02:42:18 00:02:48:08 01:02:42:14 01:02:48:04
* FROM CLIP NAME: sample 11092024.mp4

020  AX       V     C        00:02:48:09 00:02:54:19 01:02:48:04 01:02:54:14
* FROM CLIP NAME: sample 11092024.mp4

021  AX       V     C        00:02:54:19 00:03:02:23 01:02:54:14 01:03:02:18
* FROM CLIP NAME: sample 11092024.mp4

022  AX       V     C        00:03:02:23 00:03:08:16 01:03:02:18 01:03:08:11
* FROM CLIP NAME: sample 11092024.mp4

023  AX       V     C        00:03:08:16 00:03:14:22 01:03:08:11 01:03:14:17
* FROM CLIP NAME: sample 11092024.mp4

024  AX       V     C        00:03:14:22 00:03:21:03 01:03:14:17 01:03:20:28
* FROM CLIP NAME: sample 11092024.mp4

025  AX       V     C        00:03:21:04 00:03:28:16 01:03:20:28 01:03:28:10
* FROM CLIP NAME: sample 11092024.mp4

026  AX       V     C        00:03:28:16 00:03:36:02 01:03:28:10 01:03:35:26
* FROM CLIP NAME: sample 11092024.mp4

