<?xml version="1.0" encoding="UTF-8"?><svg id="Layer_1" xmlns="http://www.w3.org/2000/svg" viewBox="0 0 840.24 824.4"><defs><style>.cls-1{fill:#9da6ac;}.cls-1,.cls-2,.cls-3,.cls-4,.cls-5,.cls-6,.cls-7,.cls-8,.cls-9{stroke-width:0px;}.cls-2{fill:#31a8ff;}.cls-3{fill:#77858f;}.cls-4{fill:#77838c;}.cls-5{fill:#31a7fd;}.cls-6{fill:#001e36;}.cls-7{fill:#001e37;}.cls-8{fill:#31a7fe;}.cls-9{fill:#31a8fe;}</style></defs><g id="oLlb3E"><path class="cls-6" d="M840.24,176.11v472.18c-.2.39-.54.76-.56,1.16-.08,1.68-.05,3.36-.07,5.03-.04,2.58-.32,5.11-.87,7.67-.72,3.36-.57,6.92-1.37,10.25-.4,1.67-.91,3.28-.93,5.01,0,.29-.19.58-.3.87-.21.54-.62,1.1-.6,1.63.1,2.05-1.57,3.75-1.07,5.85-1.2.91-.87,2.25-.96,3.46-.09,1.15-.77,2.16-1.13,3.2-.43,1.24-.55,2.54-1.01,3.74-.5,1.32-1.59,2.54-1.68,3.85-.17,2.57-1.71,4.58-2.49,6.87-.7,2.06-1.44,4.26-2.65,6.22-1.43,2.32-2.43,4.89-3.63,7.35-1.11,2.3-2.18,4.62-3.36,6.88-1.46,2.8-3.05,5.54-4.85,8.15-.96,1.39-1.43,3.13-2.97,4.1-.83,2.83-2.83,5.04-4.47,7.32-2,2.78-4.04,5.59-6.22,8.25-2.42,2.95-4.87,5.89-7.5,8.65-3.73,3.91-7.62,7.68-11.48,11.45-1.08,1.05-2.34,1.92-3.5,2.9-3.06,2.59-6.03,5.31-9.2,7.75-3.14,2.42-6.46,4.6-9.75,6.8-1.12.75-2.22,1.66-3.35,2.24-1.67.86-3.1,2.06-4.75,2.93-1.42.75-2.78,1.62-4.2,2.38-2.25,1.22-4.51,2.42-6.8,3.58-2.27,1.15-4.58,2.23-6.88,3.32-1.84.88-3.77,1.57-5.6,2.42-2.16,1-4.39,1.78-6.58,2.68-.63.26-1.2.7-1.84.89-1.46.43-3.24.38-4.34,1.23-1.12.86-2.48.29-3.22.98-1.05.97-2.18.7-3.3.92-.23.05-.59.02-.68.16-.77,1.2-2.27.31-2.99.94-.98.86-1.99.75-3.06.82-.24.01-.58-.05-.7.08-1.13,1.23-2.61.78-3.97.9-.4.03-.99-.09-1.15.13-.89,1.19-2.14.73-3.27.84-.32.03-.8-.04-.92.13-.85,1.3-2.14.72-3.26.82-.79.08-1.91-.28-2.34.12-1.29,1.24-2.84.76-4.26.98-2.78.44-5.58.77-8.39.99-2.07.17-4.15.05-6.23.15-.65.03-1.29.35-1.94.54-162.01,0-324.02,0-486.03,0-.33-.18-.65-.51-.98-.52-2.4-.09-4.8,0-7.19-.18-2.33-.17-4.64-.62-6.96-.88-1.42-.16-3.1.24-4.24-.38-1.52-.83-2.97-.78-4.51-.84-.63-.02-1.58.14-1.83-.19-.8-1.08-1.87-.58-2.81-.79-.94-.21-1.82-.67-2.75-.9-1.39-.34-2.84.3-4.27-.79-1.06-.81-2.72-.34-4.18-1-2.15-.97-4.61-1.32-6.92-2.09-1.99-.67-3.99-1.43-6-1.95-3.07-.8-5.85-2.22-8.79-3.28-.58-.21-1.08-.72-1.67-.83-2.86-.56-5.22-2.29-7.87-3.35-3.05-1.22-5.77-3.23-8.77-4.59-3.2-1.45-5.99-3.54-8.99-5.3-1.25-.73-2.84-1.18-3.62-2.62-2.91-.88-4.94-3.18-7.47-4.68-2.86-1.71-5.4-3.97-8.04-6.01-2.8-2.16-5.3-4.78-8.12-6.98-.97-.76-1.78-1.72-2.64-2.62-4.09-4.27-8.57-8.15-12.27-12.82-2.93-3.7-6.25-7.09-8.9-11.03-1.85-2.75-3.99-5.31-5.77-8.09-.69-1.08-1.5-2.08-2.14-3.15-1.86-3.14-3.92-6.17-5.49-9.49-1.19-2.52-2.57-4.94-3.8-7.43-1.06-2.15-1.74-4.55-3.13-6.45-1.85-2.53-2.29-5.59-3.7-8.28-.62-1.19-1.12-2.63-1.6-3.98-.5-1.4-1.06-2.78-1.59-4.18-.02-.32-.04-.64-.06-.96-.18-.3-.35-.6-.53-.9-.15-.66-.29-1.32-.44-1.98-.13-.34-.25-.68-.38-1.02-.19-.46-.38-.92-.57-1.39-.14-.81-.28-1.62-.41-2.43-.19-.47-.38-.94-.57-1.4-.14-.63.4-1.47-.56-1.85-.13-.16-.26-.33-.39-.49-.04-1.03.29-2.36-.22-3.01-.81-1.02-.68-2.01-.77-3.08-.04-.55-.12-1.1-.27-1.62-.55-1.91-1.56-3.79-1.64-5.71-.15-3.77-1.71-7.35-1.27-11.16.02-.15-.04-.31-.06-.47-.26-.37-.53-.73-.79-1.1-.06-3.63-.12-7.26-.18-10.89-.92-1.36-.6-2.9-.6-4.38-.01-154.77-.01-309.55-.01-464.32,0-.72-.08-1.45.03-2.16.11-.75.38-1.49.59-2.23.06-3.63.13-7.26.19-10.89.26-.37.52-.73.78-1.1.09-1.99-.19-4.1.39-5.93.44-1.38.56-2.72.79-4.09.23-1.36.88-2.71.82-4.05-.1-2.4,1.71-4.37,1.29-6.78-.01-.07,0-.19.05-.23,1.32-1.1.79-2.6.89-3.97.13-.17.26-.33.39-.5.96-.38.42-1.22.56-1.84.21-.76.41-1.53.62-2.29,0,0,.04-.01.04-.01.3-.97.6-1.95.89-2.92.12-.34.25-.68.37-1.02.15-.66.29-1.32.44-1.98.17-.3.35-.6.52-.9.02-.32.04-.64.06-.96.31-.6.76-1.17.9-1.81.44-2.02,1.07-3.95,2.06-5.77.4-.73.84-1.5.95-2.3.32-2.38,1.79-4.25,2.69-6.37,1.04-2.45,2.28-4.82,3.47-7.2.8-1.61,1.59-3.23,2.49-4.78,1.44-2.49,2.76-5.04,4.23-7.51,1.97-3.3,4.21-6.4,6.2-9.67.54-.89,1.1-1.79,1.74-2.61,1.65-2.13,3.58-4.08,4.95-6.37,1.82-3.03,4.43-5.36,6.55-8.11,2.58-3.35,5.72-6.33,8.88-9.18,3.61-3.25,6.55-7.17,10.76-9.84,2.17-1.37,3.79-3.62,6.06-5.06,1.35-.85,2.58-1.96,3.84-2.97,2.66-2.13,5.57-3.9,8.31-5.91,1.09-.8,2.21-1.78,3.37-2.25,3.08-1.25,5.48-3.59,8.55-4.85,2.18-.9,4.13-2.33,6.27-3.35,2.44-1.17,5.1-1.92,7.41-3.27,2.68-1.57,5.55-2.6,8.38-3.78,2.06-.86,4.28-1.38,6.29-2.23,2.37-.99,4.89-1.48,7.22-2.62,2.2-1.08,4.84-1.15,7.21-2.02,1.24-.46,2.64-.29,3.98-.96,1.14-.57,2.61-.44,3.97-.9,1.67-.56,3.58-.56,5.39-1.06,1.83-.51,3.81-.47,5.75-.95,3.4-.84,7-.91,10.52-1.2,1.99-.16,3.99-.08,5.99-.2.57-.03,1.12-.36,1.68-.55,1.36-.01,2.72-.04,4.08-.04,159.76,0,319.52,0,479.29,0,1.52,0,3.04.02,4.56.04.64.19,1.29.58,1.92.54,5.42-.33,10.69,1.03,16.06,1.27,1.95,1.11,4.09,1.01,6.23,1,.16,0,.39,0,.45.08.91,1.33,2.28.78,3.48.87,1.94.14,3.65,1.41,5.67,1.1.07,0,.18.04.21.1.68,1.2,1.87.52,2.8.77,1.02.28,2.01.67,3.03.94,1.63.43,3.47.48,4.85,1.31,1.06.63,2.24.32,3.07.93,1.42,1.03,3.15.99,4.66,1.72,1.37.67,2.97.84,4.39,1.42,2.03.82,3.99,1.83,6,2.72,2.4,1.07,4.85,2.03,7.21,3.16,3.21,1.54,6.37,3.17,9.52,4.81,1.55.81,3.2,1.53,4.53,2.62,2.02,1.66,4.42,2.69,6.57,4.12,2.34,1.57,4.78,3.12,7.14,4.68,2.84,1.88,5.41,4.2,8.22,6.18,2.1,1.48,3.78,3.46,5.87,5,2.25,1.66,4.1,3.85,6.13,5.8,5.64,5.4,11.15,10.91,15.98,17.07.56.72,1.33,1.28,1.87,2.01,1.79,2.4,3.52,4.84,5.28,7.27.31.42.64.83.93,1.27.87,1.31,1.71,2.64,2.6,3.93,1.03,1.48,2.22,2.86,3.13,4.42,1.6,2.75,3.04,5.59,4.53,8.39,1.24,2.33,2.49,4.66,3.7,7.01,1.2,2.34,2.37,4.7,3.53,7.06.8,1.62,1.96,3.2,2.26,4.91.42,2.42,2.19,4.24,2.44,6.73.14,1.42,1.16,2.73,1.7,4.13.43,1.13.76,2.31,1.08,3.47.4,1.47.45,3.14,1.23,4.36.63.99.55,1.9.77,2.85.21.94.72,1.81.91,2.75.41,2.03.7,4.09,1.05,6.13.03.15.09.36.2.41.99.45.68,1.34.73,2.09.08,1.17-.17,2.39.81,3.37.23.23.23.75.23,1.13-.08,3.57,1.58,6.94,1.18,10.54-.02.16-.04.36.04.47,1.23,1.61.74,3.49.83,5.26.11,1.99.04,4,.13,5.99.02.47.37.93.56,1.4ZM669.95,429.35c.16-.06.33-.11.49-.17v-2.81c0-64.46-.08-128.92.1-193.37.02-7.65-.84-14.92-3.78-21.95-1.54-3.68-2.83-7.51-4.77-10.97-8.17-14.58-20.79-23.24-36.84-27.34-4.23-1.08-8.43-1.47-12.76-1.47-129.16.04-258.31.03-387.47.03-.72,0-1.44-.01-2.16,0-.48.01-.98-.02-1.43.11-3.22.92-6.47,1.76-9.64,2.82-16.1,5.37-28.26,15.33-35.44,30.91-4.02,8.71-5.5,17.95-5.5,27.52.02,125.64.02,251.28.01,376.91,0,4.33.21,8.63,1.01,12.89,3.18,17,11.82,30.39,26.57,39.59,10.25,6.4,21.58,8.93,33.6,8.92,64.94-.04,129.88-.02,194.82-.02.76,0,1.53-.06,2.46-.11-1.36-1.44-2.58-2.66-3.72-3.96-8.78-9.95-17.67-19.82-26.26-29.94-3.07-3.62-6.39-5.1-11.16-5.09-51.1.15-102.21.13-153.31.11-2.79,0-5.6-.12-8.36-.51-8.6-1.2-14.08-6.21-15.84-14.74-.65-3.18-.81-6.5-.81-9.76-.04-76.29-.03-152.59-.03-228.88,0-47.5,0-95.01.02-142.51,0-2.79.12-5.6.48-8.37,1.16-8.86,6.22-14.36,15-16.14,2.87-.58,5.87-.76,8.81-.76,124.36-.04,248.72-.03,373.08-.02,2.23,0,4.48.13,6.69.37,9.86,1.07,16.12,7.13,17.2,16.96.48,4.35.46,8.77.46,13.16-.07,46.46-.19,92.93-.27,139.39,0,2.71.1,5.44.37,8.14.7,6.95,3.93,12.22,10.42,15.26.92.43,1.8,1.04,2.54,1.74,6.69,6.31,13.35,12.65,20.03,18.98,1.79,1.7,3.6,3.38,5.4,5.06ZM670.49,541.12c-.14-7.01-.1-12.15-.93-17.33-1.68-10.62-4-21.02-7.79-31.08-18.56-49.31-64-82.17-115.82-84.88-15.3-.8-30.32.8-45.02,5.16-62.46,18.5-103.23,82.04-92.16,147.4,5.06,29.87,18.57,55.23,40.85,75.81,30.2,27.9,73.86,40.36,114.09,32.66,41.49-7.93,78-37.17,95.18-76.09,4.62-10.46,7.44-21.38,9.59-32.56,1.33-6.93,2.57-13.82,2.01-19.08ZM516.62,287.01c.44-3.08.3-36.37-.16-38.12h-37.89v38.12h38.05ZM361.37,593.41c.48-2.57.4-36.35-.07-38.15h-37.8c-.48,3.2-.38,36.34.1,38.15h37.77ZM285.46,248.99c-3.34-.51-36.52-.37-38.17.12v37.75c3.34.5,36.44.33,38.17-.19v-37.68ZM362.51,286.89v-38.1h-38.14v38.1h38.14ZM555.96,248.76c-.48,2.78-.38,36.36.08,38.05h38v-38.05h-38.08ZM248.54,555.3c-.6,1.75-.66,36.02-.06,38.15h37.75c.49-2.79.39-36.34-.11-38.15h-37.57ZM401.62,248.59v38.26h37.89v-38.26h-37.89Z"/><path class="cls-1" d="M0,176.11c.49-.15.98-.3,1.48-.45-.2.74-.48,1.47-.59,2.23-.1.71-.03,1.44-.03,2.16,0,154.77,0,309.55.01,464.32,0,1.48-.32,3.02.6,4.38-.49-.15-.98-.3-1.48-.45,0-157.39,0-314.79,0-472.18Z"/><path class="cls-4" d="M664.61,0c-.02.17-.03.34-.05.52-1.52-.01-3.04-.04-4.56-.04-159.76,0-319.52,0-479.29,0-1.36,0-2.72.02-4.08.04-.02-.17-.03-.34-.05-.52,162.67,0,325.35,0,488.02,0Z"/><path class="cls-3" d="M663.61,823.89c.01.17.02.34.04.51H177.55c.01-.17.02-.34.04-.51,162.01,0,324.02,0,486.03,0Z"/><path class="cls-2" d="M669.95,429.35c-1.8-1.69-3.61-3.37-5.4-5.06-6.67-6.33-13.33-12.67-20.03-18.98-.74-.7-1.62-1.31-2.54-1.74-6.49-3.04-9.72-8.32-10.42-15.26-.27-2.7-.37-5.43-.37-8.14.08-46.46.2-92.93.27-139.39,0-4.39.02-8.81-.46-13.16-1.08-9.84-7.34-15.89-17.2-16.96-2.22-.24-4.46-.37-6.69-.37-124.36-.02-248.72-.02-373.08.02-2.94,0-5.94.18-8.81.76-8.78,1.78-13.84,7.28-15,16.14-.36,2.76-.47,5.58-.48,8.37-.03,47.5-.02,95.01-.02,142.51,0,76.29,0,152.59.03,228.88,0,3.26.16,6.58.81,9.76,1.75,8.53,7.23,13.55,15.84,14.74,2.76.38,5.57.51,8.36.51,51.1.01,102.21.04,153.31-.11,4.77-.01,8.09,1.47,11.16,5.09,8.58,10.12,17.47,19.99,26.26,29.94,1.14,1.29,2.36,2.52,3.72,3.96-.93.04-1.7.11-2.46.11-64.94,0-129.88-.02-194.82.02-12.03,0-23.35-2.52-33.6-8.92-14.74-9.2-23.39-22.58-26.57-39.59-.8-4.26-1.01-8.56-1.01-12.89,0-125.64.01-251.28-.01-376.91,0-9.56,1.49-18.8,5.5-27.52,7.18-15.58,19.34-25.53,35.44-30.91,3.17-1.06,6.42-1.91,9.64-2.82.45-.13.95-.1,1.43-.11.72-.02,1.44,0,2.16,0,129.16,0,258.31,0,387.47-.03,4.34,0,8.53.39,12.76,1.47,16.05,4.1,28.67,12.76,36.84,27.34,1.94,3.46,3.23,7.29,4.77,10.97,2.94,7.02,3.81,14.3,3.78,21.95-.18,64.46-.1,128.92-.1,193.37v2.81c-.16.06-.33.11-.49.17Z"/><path class="cls-8" d="M670.49,541.12c.56,5.26-.68,12.15-2.01,19.08-2.15,11.18-4.97,22.1-9.59,32.56-17.18,38.91-53.69,68.16-95.18,76.09-40.23,7.69-83.89-4.77-114.09-32.66-22.28-20.58-35.79-45.94-40.85-75.81-11.07-65.36,29.71-128.9,92.16-147.4,14.71-4.36,29.72-5.96,45.02-5.16,51.83,2.71,97.26,35.57,115.82,84.88,3.79,10.06,6.1,20.47,7.79,31.08.82,5.19.79,10.33.93,17.33ZM445.93,539.03c.2,51.74,41.91,92.81,92.46,92.93,51.19.12,93.02-41.5,93.05-92.55.03-50.73-40.85-92.87-92.68-92.9-51.35-.03-92.62,41.56-92.84,92.53Z"/><path class="cls-5" d="M516.62,287.01h-38.05v-38.12h37.89c.46,1.75.6,35.04.16,38.12Z"/><path class="cls-5" d="M361.37,593.41h-37.77c-.48-1.8-.57-34.95-.1-38.15h37.8c.48,1.8.55,35.58.07,38.15Z"/><path class="cls-5" d="M285.46,248.99v37.68c-1.72.53-34.83.69-38.17.19v-37.75c1.64-.49,34.82-.63,38.17-.12Z"/><path class="cls-8" d="M362.51,286.89h-38.14v-38.1h38.14v38.1Z"/><path class="cls-8" d="M555.96,248.76h38.08v38.05h-38c-.46-1.69-.56-35.27-.08-38.05Z"/><path class="cls-8" d="M248.54,555.3h37.57c.5,1.81.6,35.36.11,38.15h-37.75c-.59-2.13-.54-36.4.06-38.15Z"/><path class="cls-2" d="M401.62,248.59h37.89v38.26h-37.89v-38.26Z"/><path class="cls-1" d="M7.62,136.28c-.21-.88-.73-1.84.62-2.29-.21.76-.41,1.53-.62,2.29Z"/><path class="cls-1" d="M8.29,133.98c.06-.75.06-1.51.2-2.24.05-.26.45-.45.69-.68-.3.97-.6,1.95-.89,2.92Z"/><path class="cls-1" d="M9.55,130.04c-.2-.74-.62-1.52.44-1.98-.15.66-.29,1.32-.44,1.98Z"/><path class="cls-1" d="M9.99,696.34c-1.06-.46-.65-1.24-.44-1.98.15.66.29,1.32.44,1.98Z"/><path class="cls-1" d="M8.19,689.53c-1.1-.1-.81-.76-.57-1.4.19.47.38.94.57,1.4Z"/><path class="cls-1" d="M9.17,693.35c-1.14-.07-.74-.77-.57-1.39.19.46.38.92.57,1.39Z"/><path class="cls-1" d="M1.67,164.77c-.4-.84.36-.85.78-1.1-.26.37-.52.73-.78,1.1Z"/><path class="cls-1" d="M10.52,127.16c.02-.32.04-.64.06-.96-.02.32-.04.64-.06.96Z"/><path class="cls-1" d="M2.45,660.73c-.43-.25-1.18-.26-.79-1.1.26.37.52.73.79,1.1Z"/><path class="cls-1" d="M10.57,698.2c-.02-.32-.04-.64-.06-.96.02.32.04.64.06.96Z"/><path class="cls-1" d="M6.67,138.62c.13-.17.26-.33.39-.5-.13.17-.26.33-.39.5Z"/><path class="cls-1" d="M7.06,686.28c-.13-.16-.26-.33-.39-.49.13.16.26.33.39.49Z"/><path class="cls-7" d="M445.93,539.03c.21-50.97,41.49-92.57,92.84-92.53,51.82.03,92.71,42.17,92.68,92.9-.03,51.05-41.87,92.67-93.05,92.55-50.56-.12-92.27-41.18-92.46-92.93ZM518.74,558.33c5.2.55,69.67.31,71.29-.23v-38.55h-32.91v-45.32h-38.38v84.09Z"/><path class="cls-9" d="M518.74,558.33v-84.09h38.38v45.32h32.91v38.55c-1.62.54-66.09.78-71.29.23Z"/></g></svg>